<svg width="319" height="205" viewBox="0 0 319 205" fill="none" xmlns="http://www.w3.org/2000/svg">
<path d="M116.852 121.221C129.056 121.221 140.759 116.374 149.388 107.745C158.017 99.1158 162.865 87.4125 162.865 75.2093C162.865 63.0061 158.017 51.3027 149.388 42.6738C140.759 34.0448 129.056 29.1971 116.852 29.1971C104.649 29.1971 92.9459 34.0448 84.317 42.6738C75.688 51.3027 70.8403 63.0061 70.8403 75.2093C70.8403 87.4125 75.688 99.1158 84.317 107.745C92.9459 116.374 104.649 121.221 116.852 121.221Z" fill="url(#paint0_radial_32_79)"/>
<path d="M116.852 121.221C129.056 121.221 140.759 116.374 149.388 107.745C158.017 99.1158 162.865 87.4125 162.865 75.2093C162.865 63.0061 158.017 51.3027 149.388 42.6738C140.759 34.0448 129.056 29.1971 116.852 29.1971C104.649 29.1971 92.9459 34.0448 84.317 42.6738C75.688 51.3027 70.8403 63.0061 70.8403 75.2093C70.8403 87.4125 75.688 99.1158 84.317 107.745C92.9459 116.374 104.649 121.221 116.852 121.221Z" fill="url(#paint1_radial_32_79)"/>
<g filter="url(#filter0_i_32_79)">
<path d="M288.032 29.1515C247.52 -10.3346 182.705 -9.6513 143.219 30.8599C133.043 41.2671 125.2 53.7222 120.212 67.3963C120.051 67.8259 119.795 68.2135 119.462 68.5304C119.13 68.8472 118.731 69.085 118.294 69.2262C117.858 69.3674 117.395 69.4083 116.94 69.3459C116.485 69.2834 116.051 69.1192 115.668 68.8655C112.115 66.4987 108.348 64.4702 104.416 62.8065C93.1881 57.6553 80.8457 55.4094 68.5232 56.2751C56.2007 57.1409 44.2936 61.0906 33.8966 67.7611C23.4996 74.4316 14.9464 83.6088 9.02332 94.449C3.10023 105.289 -0.0026325 117.445 1.67581e-06 129.797C0.00334363 146.507 5.67699 162.721 16.0929 175.787C23.0068 184.877 31.9301 192.244 42.1648 197.312C52.3995 202.38 63.6679 205.011 75.0886 205H219.902C235.157 205.013 250.194 201.373 263.755 194.384C277.316 187.396 289.007 177.262 297.849 164.83C328.884 124.205 325.582 65.779 288.032 29.1401" fill="#D5D4DA"/>
<path d="M288.032 29.1515C247.52 -10.3346 182.705 -9.6513 143.219 30.8599C133.043 41.2671 125.2 53.7222 120.212 67.3963C120.051 67.8259 119.795 68.2135 119.462 68.5304C119.13 68.8472 118.731 69.085 118.294 69.2262C117.858 69.3674 117.395 69.4083 116.94 69.3459C116.485 69.2834 116.051 69.1192 115.668 68.8655C112.115 66.4987 108.348 64.4702 104.416 62.8065C93.1881 57.6553 80.8457 55.4094 68.5232 56.2751C56.2007 57.1409 44.2936 61.0906 33.8966 67.7611C23.4996 74.4316 14.9464 83.6088 9.02332 94.449C3.10023 105.289 -0.0026325 117.445 1.67581e-06 129.797C0.00334363 146.507 5.67699 162.721 16.0929 175.787C23.0068 184.877 31.9301 192.244 42.1648 197.312C52.3995 202.38 63.6679 205.011 75.0886 205H219.902C235.157 205.013 250.194 201.373 263.755 194.384C277.316 187.396 289.007 177.262 297.849 164.83C328.884 124.205 325.582 65.779 288.032 29.1401" fill="url(#paint2_linear_32_79)"/>
</g>
<path d="M288.032 29.1515C247.52 -10.3346 182.705 -9.6513 143.219 30.8599C133.043 41.2671 125.2 53.7222 120.212 67.3963C120.051 67.8259 119.795 68.2135 119.462 68.5304C119.13 68.8472 118.731 69.085 118.294 69.2262C117.858 69.3674 117.395 69.4083 116.94 69.3459C116.485 69.2834 116.051 69.1192 115.668 68.8655C112.115 66.4987 108.348 64.4702 104.416 62.8065C93.1881 57.6553 80.8457 55.4094 68.5232 56.2751C56.2007 57.1409 44.2936 61.0906 33.8966 67.7611C23.4996 74.4316 14.9464 83.6088 9.02332 94.449C3.10023 105.289 -0.0026325 117.445 1.67581e-06 129.797C0.00334363 146.507 5.67699 162.721 16.0929 175.787C23.0068 184.877 31.9301 192.244 42.1648 197.312C52.3995 202.38 63.6679 205.011 75.0886 205H219.902C235.157 205.013 250.194 201.373 263.755 194.384C277.316 187.396 289.007 177.262 297.849 164.83C328.884 124.205 325.582 65.779 288.032 29.1401" fill="url(#paint3_radial_32_79)"/>
<path d="M288.032 29.1515C247.52 -10.3346 182.705 -9.6513 143.219 30.8599C133.043 41.2671 125.2 53.7222 120.212 67.3963C120.051 67.8259 119.795 68.2135 119.462 68.5304C119.13 68.8472 118.731 69.085 118.294 69.2262C117.858 69.3674 117.395 69.4083 116.94 69.3459C116.485 69.2834 116.051 69.1192 115.668 68.8655C112.115 66.4987 108.348 64.4702 104.416 62.8065C93.1881 57.6553 80.8457 55.4094 68.5232 56.2751C56.2007 57.1409 44.2936 61.0906 33.8966 67.7611C23.4996 74.4316 14.9464 83.6088 9.02332 94.449C3.10023 105.289 -0.0026325 117.445 1.67581e-06 129.797C0.00334363 146.507 5.67699 162.721 16.0929 175.787C23.0068 184.877 31.9301 192.244 42.1648 197.312C52.3995 202.38 63.6679 205.011 75.0886 205H219.902C235.157 205.013 250.194 201.373 263.755 194.384C277.316 187.396 289.007 177.262 297.849 164.83C328.884 124.205 325.582 65.779 288.032 29.1401" fill="url(#paint4_radial_32_79)"/>
<path d="M288.032 29.1515C247.52 -10.3346 182.705 -9.6513 143.219 30.8599C133.043 41.2671 125.2 53.7222 120.212 67.3963C120.051 67.8259 119.795 68.2135 119.462 68.5304C119.13 68.8472 118.731 69.085 118.294 69.2262C117.858 69.3674 117.395 69.4083 116.94 69.3459C116.485 69.2834 116.051 69.1192 115.668 68.8655C112.115 66.4987 108.348 64.4702 104.416 62.8065C93.1881 57.6553 80.8457 55.4094 68.5232 56.2751C56.2007 57.1409 44.2936 61.0906 33.8966 67.7611C23.4996 74.4316 14.9464 83.6088 9.02332 94.449C3.10023 105.289 -0.0026325 117.445 1.67581e-06 129.797C0.00334363 146.507 5.67699 162.721 16.0929 175.787C23.0068 184.877 31.9301 192.244 42.1648 197.312C52.3995 202.38 63.6679 205.011 75.0886 205H219.902C235.157 205.013 250.194 201.373 263.755 194.384C277.316 187.396 289.007 177.262 297.849 164.83C328.884 124.205 325.582 65.779 288.032 29.1401" fill="url(#paint5_radial_32_79)"/>
<path d="M288.032 29.1515C247.52 -10.3346 182.705 -9.6513 143.219 30.8599C133.043 41.2671 125.2 53.7222 120.212 67.3963C120.051 67.8259 119.795 68.2135 119.462 68.5304C119.13 68.8472 118.731 69.085 118.294 69.2262C117.858 69.3674 117.395 69.4083 116.94 69.3459C116.485 69.2834 116.051 69.1192 115.668 68.8655C112.115 66.4987 108.348 64.4702 104.416 62.8065C93.1881 57.6553 80.8457 55.4094 68.5232 56.2751C56.2007 57.1409 44.2936 61.0906 33.8966 67.7611C23.4996 74.4316 14.9464 83.6088 9.02332 94.449C3.10023 105.289 -0.0026325 117.445 1.67581e-06 129.797C0.00334363 146.507 5.67699 162.721 16.0929 175.787C23.0068 184.877 31.9301 192.244 42.1648 197.312C52.3995 202.38 63.6679 205.011 75.0886 205H219.902C235.157 205.013 250.194 201.373 263.755 194.384C277.316 187.396 289.007 177.262 297.849 164.83C328.884 124.205 325.582 65.779 288.032 29.1401" fill="url(#paint6_radial_32_79)"/>
<defs>
<filter id="filter0_i_32_79" x="0" y="-1" width="318.895" height="206" filterUnits="userSpaceOnUse" color-interpolation-filters="sRGB">
<feFlood flood-opacity="0" result="BackgroundImageFix"/>
<feBlend mode="normal" in="SourceGraphic" in2="BackgroundImageFix" result="shape"/>
<feColorMatrix in="SourceAlpha" type="matrix" values="0 0 0 0 0 0 0 0 0 0 0 0 0 0 0 0 0 0 127 0" result="hardAlpha"/>
<feOffset dy="-1"/>
<feGaussianBlur stdDeviation="1"/>
<feComposite in2="hardAlpha" operator="arithmetic" k2="-1" k3="1"/>
<feColorMatrix type="matrix" values="0 0 0 0 0.815686 0 0 0 0 0.784314 0 0 0 0 0.956863 0 0 0 1 0"/>
<feBlend mode="normal" in2="shape" result="effect1_innerShadow_32_79"/>
</filter>
<radialGradient id="paint0_radial_32_79" cx="0" cy="0" r="1" gradientUnits="userSpaceOnUse" gradientTransform="translate(133.442 58.1425) rotate(-172.463) scale(63.1467)">
<stop offset="0.309" stop-color="#E8E8E9"/>
<stop offset="1" stop-color="#D2D2D2"/>
</radialGradient>
<radialGradient id="paint1_radial_32_79" cx="0" cy="0" r="1" gradientUnits="userSpaceOnUse" gradientTransform="translate(121.773 71.3142) rotate(-141.242) scale(34.2802 31.4086)">
<stop stop-color="#CDCDCE"/>
<stop offset="1" stop-color="#CDCDCE" stop-opacity="0"/>
</radialGradient>
<linearGradient id="paint2_linear_32_79" x1="192.021" y1="193.975" x2="192.021" y2="108.409" gradientUnits="userSpaceOnUse">
<stop stop-color="#DED7FA"/>
<stop offset="1" stop-color="#DED7FA" stop-opacity="0"/>
</linearGradient>
<radialGradient id="paint3_radial_32_79" cx="0" cy="0" r="1" gradientUnits="userSpaceOnUse" gradientTransform="translate(277.591 68.9239) rotate(136.5) scale(127.036 136.271)">
<stop offset="0.179" stop-color="#FCFBFE"/>
<stop offset="1" stop-color="#FCFBFE" stop-opacity="0"/>
</radialGradient>
<radialGradient id="paint4_radial_32_79" cx="0" cy="0" r="1" gradientUnits="userSpaceOnUse" gradientTransform="translate(75.8293 117.621) rotate(144.444) scale(77.9354 81.6644)">
<stop stop-color="#FCFBFE"/>
<stop offset="1" stop-color="#FCFBFE" stop-opacity="0"/>
</radialGradient>
<radialGradient id="paint5_radial_32_79" cx="0" cy="0" r="1" gradientUnits="userSpaceOnUse" gradientTransform="translate(264.376 96.4158) rotate(166.654) scale(271.719 213.987)">
<stop offset="0.815" stop-color="#CECCD7" stop-opacity="0"/>
<stop offset="1" stop-color="#CECCD7"/>
</radialGradient>
<radialGradient id="paint6_radial_32_79" cx="0" cy="0" r="1" gradientUnits="userSpaceOnUse" gradientTransform="translate(41.502 216.606) rotate(-46.79) scale(73.6134 101.588)">
<stop stop-color="#D0C9EE"/>
<stop offset="1" stop-color="#D0C9EE" stop-opacity="0"/>
</radialGradient>
</defs>
</svg>
