<svg width="296" height="250" viewBox="0 0 296 250" fill="none" xmlns="http://www.w3.org/2000/svg">
<path fill-rule="evenodd" clip-rule="evenodd" d="M247.604 165.208C230.903 174.202 211.798 179.305 191.5 179.305C126.054 179.305 73 126.251 73 60.8048C73 38.5759 79.1206 17.7765 89.7685 0C37.7695 16.1119 0 64.5852 0 121.88C0 192.338 57.1172 249.455 127.575 249.455C182.821 249.455 229.866 214.338 247.604 165.208Z" fill="url(#paint0_linear_32_73)"/>
<g filter="url(#filter0_i_32_73)">
<path d="M273.92 110.335C245.661 82.791 200.448 83.2676 172.904 111.527C165.805 118.786 160.335 127.475 156.856 137.013C156.743 137.313 156.564 137.583 156.332 137.804C156.101 138.025 155.822 138.191 155.518 138.29C155.213 138.388 154.89 138.417 154.573 138.373C154.256 138.329 153.952 138.215 153.686 138.038C151.207 136.387 148.579 134.972 145.836 133.811C138.004 130.218 129.395 128.651 120.799 129.255C112.203 129.859 103.898 132.614 96.645 137.268C89.3924 141.921 83.426 148.322 79.2943 155.884C75.1626 163.446 72.9982 171.925 73 180.542C73.0023 192.198 76.96 203.508 84.2258 212.622C89.0486 218.963 95.2732 224.102 102.413 227.637C109.552 231.172 117.412 233.008 125.379 233H226.395C237.037 233.009 247.526 230.47 256.985 225.595C266.445 220.72 274.6 213.651 280.768 204.979C302.417 176.641 300.113 135.885 273.92 110.327" fill="#D5D4DA"/>
<path d="M273.92 110.335C245.661 82.791 200.448 83.2676 172.904 111.527C165.805 118.786 160.335 127.475 156.856 137.013C156.743 137.313 156.564 137.583 156.332 137.804C156.101 138.025 155.822 138.191 155.518 138.29C155.213 138.388 154.89 138.417 154.573 138.373C154.256 138.329 153.952 138.215 153.686 138.038C151.207 136.387 148.579 134.972 145.836 133.811C138.004 130.218 129.395 128.651 120.799 129.255C112.203 129.859 103.898 132.614 96.645 137.268C89.3924 141.921 83.426 148.322 79.2943 155.884C75.1626 163.446 72.9982 171.925 73 180.542C73.0023 192.198 76.96 203.508 84.2258 212.622C89.0486 218.963 95.2732 224.102 102.413 227.637C109.552 231.172 117.412 233.008 125.379 233H226.395C237.037 233.009 247.526 230.47 256.985 225.595C266.445 220.72 274.6 213.651 280.768 204.979C302.417 176.641 300.113 135.885 273.92 110.327" fill="url(#paint1_linear_32_73)"/>
</g>
<path d="M273.92 110.335C245.661 82.791 200.448 83.2676 172.904 111.527C165.805 118.786 160.335 127.475 156.856 137.013C156.743 137.313 156.564 137.583 156.332 137.804C156.101 138.025 155.822 138.191 155.518 138.29C155.213 138.388 154.89 138.417 154.573 138.373C154.256 138.329 153.952 138.215 153.686 138.038C151.207 136.387 148.579 134.972 145.836 133.811C138.004 130.218 129.395 128.651 120.799 129.255C112.203 129.859 103.898 132.614 96.645 137.268C89.3924 141.921 83.426 148.322 79.2943 155.884C75.1626 163.446 72.9982 171.925 73 180.542C73.0023 192.198 76.96 203.508 84.2258 212.622C89.0486 218.963 95.2732 224.102 102.413 227.637C109.552 231.172 117.412 233.008 125.379 233H226.395C237.037 233.009 247.526 230.47 256.985 225.595C266.445 220.72 274.6 213.651 280.768 204.979C302.417 176.641 300.113 135.885 273.92 110.327" fill="url(#paint2_radial_32_73)"/>
<path d="M273.92 110.335C245.661 82.791 200.448 83.2676 172.904 111.527C165.805 118.786 160.335 127.475 156.856 137.013C156.743 137.313 156.564 137.583 156.332 137.804C156.101 138.025 155.822 138.191 155.518 138.29C155.213 138.388 154.89 138.417 154.573 138.373C154.256 138.329 153.952 138.215 153.686 138.038C151.207 136.387 148.579 134.972 145.836 133.811C138.004 130.218 129.395 128.651 120.799 129.255C112.203 129.859 103.898 132.614 96.645 137.268C89.3924 141.921 83.426 148.322 79.2943 155.884C75.1626 163.446 72.9982 171.925 73 180.542C73.0023 192.198 76.96 203.508 84.2258 212.622C89.0486 218.963 95.2732 224.102 102.413 227.637C109.552 231.172 117.412 233.008 125.379 233H226.395C237.037 233.009 247.526 230.47 256.985 225.595C266.445 220.72 274.6 213.651 280.768 204.979C302.417 176.641 300.113 135.885 273.92 110.327" fill="url(#paint3_radial_32_73)"/>
<path d="M273.92 110.335C245.661 82.791 200.448 83.2676 172.904 111.527C165.805 118.786 160.335 127.475 156.856 137.013C156.743 137.313 156.564 137.583 156.332 137.804C156.101 138.025 155.822 138.191 155.518 138.29C155.213 138.388 154.89 138.417 154.573 138.373C154.256 138.329 153.952 138.215 153.686 138.038C151.207 136.387 148.579 134.972 145.836 133.811C138.004 130.218 129.395 128.651 120.799 129.255C112.203 129.859 103.898 132.614 96.645 137.268C89.3924 141.921 83.426 148.322 79.2943 155.884C75.1626 163.446 72.9982 171.925 73 180.542C73.0023 192.198 76.96 203.508 84.2258 212.622C89.0486 218.963 95.2732 224.102 102.413 227.637C109.552 231.172 117.412 233.008 125.379 233H226.395C237.037 233.009 247.526 230.47 256.985 225.595C266.445 220.72 274.6 213.651 280.768 204.979C302.417 176.641 300.113 135.885 273.92 110.327" fill="url(#paint4_radial_32_73)"/>
<path d="M273.92 110.335C245.661 82.791 200.448 83.2676 172.904 111.527C165.805 118.786 160.335 127.475 156.856 137.013C156.743 137.313 156.564 137.583 156.332 137.804C156.101 138.025 155.822 138.191 155.518 138.29C155.213 138.388 154.89 138.417 154.573 138.373C154.256 138.329 153.952 138.215 153.686 138.038C151.207 136.387 148.579 134.972 145.836 133.811C138.004 130.218 129.395 128.651 120.799 129.255C112.203 129.859 103.898 132.614 96.645 137.268C89.3924 141.921 83.426 148.322 79.2943 155.884C75.1626 163.446 72.9982 171.925 73 180.542C73.0023 192.198 76.96 203.508 84.2258 212.622C89.0486 218.963 95.2732 224.102 102.413 227.637C109.552 231.172 117.412 233.008 125.379 233H226.395C237.037 233.009 247.526 230.47 256.985 225.595C266.445 220.72 274.6 213.651 280.768 204.979C302.417 176.641 300.113 135.885 273.92 110.327" fill="url(#paint5_radial_32_73)"/>
<defs>
<filter id="filter0_i_32_73" x="73" y="89" width="222.449" height="144" filterUnits="userSpaceOnUse" color-interpolation-filters="sRGB">
<feFlood flood-opacity="0" result="BackgroundImageFix"/>
<feBlend mode="normal" in="SourceGraphic" in2="BackgroundImageFix" result="shape"/>
<feColorMatrix in="SourceAlpha" type="matrix" values="0 0 0 0 0 0 0 0 0 0 0 0 0 0 0 0 0 0 127 0" result="hardAlpha"/>
<feOffset dy="-1"/>
<feGaussianBlur stdDeviation="1"/>
<feComposite in2="hardAlpha" operator="arithmetic" k2="-1" k3="1"/>
<feColorMatrix type="matrix" values="0 0 0 0 0.815686 0 0 0 0 0.784314 0 0 0 0 0.956863 0 0 0 1 0"/>
<feBlend mode="normal" in2="shape" result="effect1_innerShadow_32_73"/>
</filter>
<linearGradient id="paint0_linear_32_73" x1="26" y1="37.8049" x2="223" y2="201.305" gradientUnits="userSpaceOnUse">
<stop stop-color="#CAB1FF"/>
<stop offset="0.614" stop-color="#B04DFF"/>
<stop offset="0.984" stop-color="#7D2ACF"/>
</linearGradient>
<linearGradient id="paint1_linear_32_73" x1="206.946" y1="225.31" x2="206.946" y2="165.622" gradientUnits="userSpaceOnUse">
<stop stop-color="#DED7FA"/>
<stop offset="1" stop-color="#DED7FA" stop-opacity="0"/>
</linearGradient>
<radialGradient id="paint2_radial_32_73" cx="0" cy="0" r="1" gradientUnits="userSpaceOnUse" gradientTransform="translate(266.637 138.079) rotate(136.5) scale(88.6151 95.0574)">
<stop offset="0.179" stop-color="#FCFBFE"/>
<stop offset="1" stop-color="#FCFBFE" stop-opacity="0"/>
</radialGradient>
<radialGradient id="paint3_radial_32_73" cx="0" cy="0" r="1" gradientUnits="userSpaceOnUse" gradientTransform="translate(125.896 172.048) rotate(144.444) scale(54.3647 56.9659)">
<stop stop-color="#FCFBFE"/>
<stop offset="1" stop-color="#FCFBFE" stop-opacity="0"/>
</radialGradient>
<radialGradient id="paint4_radial_32_73" cx="0" cy="0" r="1" gradientUnits="userSpaceOnUse" gradientTransform="translate(257.419 157.256) rotate(166.654) scale(189.541 149.269)">
<stop offset="0.815" stop-color="#CECCD7" stop-opacity="0"/>
<stop offset="1" stop-color="#CECCD7"/>
</radialGradient>
<radialGradient id="paint5_radial_32_73" cx="0" cy="0" r="1" gradientUnits="userSpaceOnUse" gradientTransform="translate(101.95 241.096) rotate(-46.79) scale(51.3499 70.8641)">
<stop stop-color="#D0C9EE"/>
<stop offset="1" stop-color="#D0C9EE" stop-opacity="0"/>
</radialGradient>
</defs>
</svg>
