<svg width="319" height="278" viewBox="0 0 319 278" fill="none" xmlns="http://www.w3.org/2000/svg">
<path d="M116.852 121.221C129.056 121.221 140.759 116.374 149.388 107.745C158.017 99.1158 162.865 87.4125 162.865 75.2093C162.865 63.0061 158.017 51.3027 149.388 42.6738C140.759 34.0448 129.056 29.1971 116.852 29.1971C104.649 29.1971 92.9459 34.0448 84.317 42.6738C75.688 51.3027 70.8403 63.0061 70.8403 75.2093C70.8403 87.4125 75.688 99.1158 84.317 107.745C92.9459 116.374 104.649 121.221 116.852 121.221Z" fill="url(#paint0_radial_60_4)"/>
<path d="M116.852 121.221C129.056 121.221 140.759 116.374 149.388 107.745C158.017 99.1158 162.865 87.4125 162.865 75.2093C162.865 63.0061 158.017 51.3027 149.388 42.6738C140.759 34.0448 129.056 29.1971 116.852 29.1971C104.649 29.1971 92.9459 34.0448 84.317 42.6738C75.688 51.3027 70.8403 63.0061 70.8403 75.2093C70.8403 87.4125 75.688 99.1158 84.317 107.745C92.9459 116.374 104.649 121.221 116.852 121.221Z" fill="url(#paint1_radial_60_4)"/>
<g filter="url(#filter0_i_60_4)">
<path d="M288.032 29.1515C247.52 -10.3346 182.705 -9.6513 143.219 30.8599C133.043 41.2671 125.2 53.7222 120.212 67.3963C120.051 67.8259 119.795 68.2135 119.462 68.5304C119.13 68.8472 118.731 69.085 118.294 69.2262C117.858 69.3674 117.395 69.4083 116.94 69.3459C116.485 69.2834 116.051 69.1192 115.668 68.8655C112.115 66.4987 108.348 64.4702 104.416 62.8065C93.1881 57.6553 80.8457 55.4094 68.5232 56.2751C56.2007 57.1409 44.2936 61.0906 33.8966 67.7611C23.4996 74.4316 14.9464 83.6088 9.02332 94.449C3.10023 105.289 -0.0026325 117.445 1.67581e-06 129.797C0.00334363 146.507 5.67699 162.721 16.0929 175.787C23.0068 184.877 31.9301 192.244 42.1648 197.312C52.3995 202.38 63.6679 205.011 75.0886 205H219.902C235.157 205.013 250.194 201.373 263.755 194.384C277.316 187.396 289.007 177.262 297.849 164.83C328.884 124.205 325.582 65.779 288.032 29.1401" fill="#D5D4DA"/>
<path d="M288.032 29.1515C247.52 -10.3346 182.705 -9.6513 143.219 30.8599C133.043 41.2671 125.2 53.7222 120.212 67.3963C120.051 67.8259 119.795 68.2135 119.462 68.5304C119.13 68.8472 118.731 69.085 118.294 69.2262C117.858 69.3674 117.395 69.4083 116.94 69.3459C116.485 69.2834 116.051 69.1192 115.668 68.8655C112.115 66.4987 108.348 64.4702 104.416 62.8065C93.1881 57.6553 80.8457 55.4094 68.5232 56.2751C56.2007 57.1409 44.2936 61.0906 33.8966 67.7611C23.4996 74.4316 14.9464 83.6088 9.02332 94.449C3.10023 105.289 -0.0026325 117.445 1.67581e-06 129.797C0.00334363 146.507 5.67699 162.721 16.0929 175.787C23.0068 184.877 31.9301 192.244 42.1648 197.312C52.3995 202.38 63.6679 205.011 75.0886 205H219.902C235.157 205.013 250.194 201.373 263.755 194.384C277.316 187.396 289.007 177.262 297.849 164.83C328.884 124.205 325.582 65.779 288.032 29.1401" fill="url(#paint2_linear_60_4)"/>
</g>
<path d="M288.032 29.1515C247.52 -10.3346 182.705 -9.6513 143.219 30.8599C133.043 41.2671 125.2 53.7222 120.212 67.3963C120.051 67.8259 119.795 68.2135 119.462 68.5304C119.13 68.8472 118.731 69.085 118.294 69.2262C117.858 69.3674 117.395 69.4083 116.94 69.3459C116.485 69.2834 116.051 69.1192 115.668 68.8655C112.115 66.4987 108.348 64.4702 104.416 62.8065C93.1881 57.6553 80.8457 55.4094 68.5232 56.2751C56.2007 57.1409 44.2936 61.0906 33.8966 67.7611C23.4996 74.4316 14.9464 83.6088 9.02332 94.449C3.10023 105.289 -0.0026325 117.445 1.67581e-06 129.797C0.00334363 146.507 5.67699 162.721 16.0929 175.787C23.0068 184.877 31.9301 192.244 42.1648 197.312C52.3995 202.38 63.6679 205.011 75.0886 205H219.902C235.157 205.013 250.194 201.373 263.755 194.384C277.316 187.396 289.007 177.262 297.849 164.83C328.884 124.205 325.582 65.779 288.032 29.1401" fill="url(#paint3_radial_60_4)"/>
<path d="M288.032 29.1515C247.52 -10.3346 182.705 -9.6513 143.219 30.8599C133.043 41.2671 125.2 53.7222 120.212 67.3963C120.051 67.8259 119.795 68.2135 119.462 68.5304C119.13 68.8472 118.731 69.085 118.294 69.2262C117.858 69.3674 117.395 69.4083 116.94 69.3459C116.485 69.2834 116.051 69.1192 115.668 68.8655C112.115 66.4987 108.348 64.4702 104.416 62.8065C93.1881 57.6553 80.8457 55.4094 68.5232 56.2751C56.2007 57.1409 44.2936 61.0906 33.8966 67.7611C23.4996 74.4316 14.9464 83.6088 9.02332 94.449C3.10023 105.289 -0.0026325 117.445 1.67581e-06 129.797C0.00334363 146.507 5.67699 162.721 16.0929 175.787C23.0068 184.877 31.9301 192.244 42.1648 197.312C52.3995 202.38 63.6679 205.011 75.0886 205H219.902C235.157 205.013 250.194 201.373 263.755 194.384C277.316 187.396 289.007 177.262 297.849 164.83C328.884 124.205 325.582 65.779 288.032 29.1401" fill="url(#paint4_radial_60_4)"/>
<path d="M288.032 29.1515C247.52 -10.3346 182.705 -9.6513 143.219 30.8599C133.043 41.2671 125.2 53.7222 120.212 67.3963C120.051 67.8259 119.795 68.2135 119.462 68.5304C119.13 68.8472 118.731 69.085 118.294 69.2262C117.858 69.3674 117.395 69.4083 116.94 69.3459C116.485 69.2834 116.051 69.1192 115.668 68.8655C112.115 66.4987 108.348 64.4702 104.416 62.8065C93.1881 57.6553 80.8457 55.4094 68.5232 56.2751C56.2007 57.1409 44.2936 61.0906 33.8966 67.7611C23.4996 74.4316 14.9464 83.6088 9.02332 94.449C3.10023 105.289 -0.0026325 117.445 1.67581e-06 129.797C0.00334363 146.507 5.67699 162.721 16.0929 175.787C23.0068 184.877 31.9301 192.244 42.1648 197.312C52.3995 202.38 63.6679 205.011 75.0886 205H219.902C235.157 205.013 250.194 201.373 263.755 194.384C277.316 187.396 289.007 177.262 297.849 164.83C328.884 124.205 325.582 65.779 288.032 29.1401" fill="url(#paint5_radial_60_4)"/>
<path d="M288.032 29.1515C247.52 -10.3346 182.705 -9.6513 143.219 30.8599C133.043 41.2671 125.2 53.7222 120.212 67.3963C120.051 67.8259 119.795 68.2135 119.462 68.5304C119.13 68.8472 118.731 69.085 118.294 69.2262C117.858 69.3674 117.395 69.4083 116.94 69.3459C116.485 69.2834 116.051 69.1192 115.668 68.8655C112.115 66.4987 108.348 64.4702 104.416 62.8065C93.1881 57.6553 80.8457 55.4094 68.5232 56.2751C56.2007 57.1409 44.2936 61.0906 33.8966 67.7611C23.4996 74.4316 14.9464 83.6088 9.02332 94.449C3.10023 105.289 -0.0026325 117.445 1.67581e-06 129.797C0.00334363 146.507 5.67699 162.721 16.0929 175.787C23.0068 184.877 31.9301 192.244 42.1648 197.312C52.3995 202.38 63.6679 205.011 75.0886 205H219.902C235.157 205.013 250.194 201.373 263.755 194.384C277.316 187.396 289.007 177.262 297.849 164.83C328.884 124.205 325.582 65.779 288.032 29.1401" fill="url(#paint6_radial_60_4)"/>
<path d="M127 278C121.165 278 115.569 275.698 111.444 271.6C107.318 267.502 105 261.944 105 256.149C105 241.582 127 217 127 217C127 217 149 241.582 149 256.149C149 261.944 146.682 267.502 142.556 271.6C138.431 275.698 132.835 278 127 278Z" fill="url(#paint7_linear_60_4)"/>
<path d="M198.5 220C199.966 220 201.145 221.149 201.145 222.578V227.529L203.68 225.059C204.716 224.049 206.391 224.049 207.416 225.059C208.441 226.068 208.452 227.701 207.416 228.699L201.134 234.821V243.037L208.43 238.935L210.733 230.579C211.108 229.204 212.562 228.388 213.973 228.753C215.384 229.118 216.221 230.536 215.846 231.911L214.921 235.272L219.009 232.974C220.277 232.265 221.897 232.684 222.624 233.919C223.351 235.154 222.922 236.733 221.654 237.442L217.566 239.74L221.037 240.642C222.448 241.008 223.285 242.425 222.911 243.8C222.536 245.175 221.081 245.991 219.671 245.626L211.097 243.381L203.79 247.495L211.086 251.597L219.66 249.353C221.07 248.988 222.525 249.804 222.9 251.178C223.274 252.553 222.437 253.971 221.026 254.336L217.566 255.249L221.654 257.547C222.922 258.256 223.351 259.835 222.624 261.07C221.897 262.305 220.277 262.724 219.009 262.015L214.921 259.717L215.846 263.1C216.221 264.475 215.384 265.892 213.973 266.258C212.562 266.623 211.108 265.806 210.733 264.432L208.43 256.076L201.145 251.963V260.179L207.427 266.301C208.463 267.31 208.463 268.943 207.427 269.941C206.391 270.94 204.716 270.951 203.691 269.941L201.156 267.471V272.422C201.156 273.851 199.977 275 198.511 275C197.045 275 195.866 273.851 195.866 272.422V267.471L193.331 269.941C192.295 270.951 190.62 270.951 189.595 269.941C188.57 268.932 188.559 267.299 189.595 266.301L195.877 260.179V251.963L188.581 256.065L186.278 264.421C185.903 265.796 184.449 266.612 183.038 266.247C181.627 265.882 180.79 264.464 181.165 263.089L182.079 259.717L177.991 262.015C176.723 262.724 175.103 262.305 174.376 261.07C173.649 259.835 174.078 258.256 175.346 257.547L179.434 255.249L175.963 254.347C174.552 253.982 173.715 252.564 174.089 251.189C174.464 249.814 175.919 248.998 177.329 249.363L185.903 251.608L193.21 247.495L185.914 243.392L177.329 245.626C175.919 245.991 174.464 245.175 174.089 243.8C173.715 242.425 174.552 241.008 175.963 240.642L179.434 239.74L175.346 237.442C174.078 236.733 173.649 235.154 174.376 233.919C175.103 232.684 176.723 232.265 177.991 232.974L182.079 235.272L181.154 231.889C180.779 230.515 181.616 229.097 183.027 228.732C184.438 228.367 185.892 229.183 186.267 230.558L188.57 238.913L195.855 243.027V234.811L189.573 228.699C188.537 227.69 188.537 226.057 189.573 225.059C190.609 224.06 192.284 224.049 193.309 225.059L195.844 227.529L195.855 222.578C195.855 221.149 197.034 220 198.5 220Z" fill="url(#paint8_linear_60_4)"/>
<defs>
<filter id="filter0_i_60_4" x="0" y="-1" width="318.895" height="206" filterUnits="userSpaceOnUse" color-interpolation-filters="sRGB">
<feFlood flood-opacity="0" result="BackgroundImageFix"/>
<feBlend mode="normal" in="SourceGraphic" in2="BackgroundImageFix" result="shape"/>
<feColorMatrix in="SourceAlpha" type="matrix" values="0 0 0 0 0 0 0 0 0 0 0 0 0 0 0 0 0 0 127 0" result="hardAlpha"/>
<feOffset dy="-1"/>
<feGaussianBlur stdDeviation="1"/>
<feComposite in2="hardAlpha" operator="arithmetic" k2="-1" k3="1"/>
<feColorMatrix type="matrix" values="0 0 0 0 0.815686 0 0 0 0 0.784314 0 0 0 0 0.956863 0 0 0 1 0"/>
<feBlend mode="normal" in2="shape" result="effect1_innerShadow_60_4"/>
</filter>
<radialGradient id="paint0_radial_60_4" cx="0" cy="0" r="1" gradientUnits="userSpaceOnUse" gradientTransform="translate(133.442 58.1425) rotate(-172.463) scale(63.1467)">
<stop offset="0.309" stop-color="#E8E8E9"/>
<stop offset="1" stop-color="#D2D2D2"/>
</radialGradient>
<radialGradient id="paint1_radial_60_4" cx="0" cy="0" r="1" gradientUnits="userSpaceOnUse" gradientTransform="translate(121.773 71.3142) rotate(-141.242) scale(34.2802 31.4086)">
<stop stop-color="#CDCDCE"/>
<stop offset="1" stop-color="#CDCDCE" stop-opacity="0"/>
</radialGradient>
<linearGradient id="paint2_linear_60_4" x1="192.021" y1="193.975" x2="192.021" y2="108.409" gradientUnits="userSpaceOnUse">
<stop stop-color="#DED7FA"/>
<stop offset="1" stop-color="#DED7FA" stop-opacity="0"/>
</linearGradient>
<radialGradient id="paint3_radial_60_4" cx="0" cy="0" r="1" gradientUnits="userSpaceOnUse" gradientTransform="translate(277.591 68.9239) rotate(136.5) scale(127.036 136.271)">
<stop offset="0.179" stop-color="#FCFBFE"/>
<stop offset="1" stop-color="#FCFBFE" stop-opacity="0"/>
</radialGradient>
<radialGradient id="paint4_radial_60_4" cx="0" cy="0" r="1" gradientUnits="userSpaceOnUse" gradientTransform="translate(75.8293 117.621) rotate(144.444) scale(77.9354 81.6644)">
<stop stop-color="#FCFBFE"/>
<stop offset="1" stop-color="#FCFBFE" stop-opacity="0"/>
</radialGradient>
<radialGradient id="paint5_radial_60_4" cx="0" cy="0" r="1" gradientUnits="userSpaceOnUse" gradientTransform="translate(264.376 96.4158) rotate(166.654) scale(271.719 213.987)">
<stop offset="0.815" stop-color="#CECCD7" stop-opacity="0"/>
<stop offset="1" stop-color="#CECCD7"/>
</radialGradient>
<radialGradient id="paint6_radial_60_4" cx="0" cy="0" r="1" gradientUnits="userSpaceOnUse" gradientTransform="translate(41.502 216.606) rotate(-46.79) scale(73.6134 101.588)">
<stop stop-color="#D0C9EE"/>
<stop offset="1" stop-color="#D0C9EE" stop-opacity="0"/>
</radialGradient>
<linearGradient id="paint7_linear_60_4" x1="105" y1="217" x2="148.625" y2="278.267" gradientUnits="userSpaceOnUse">
<stop stop-color="#60CFFF"/>
<stop offset="1" stop-color="#2770DE"/>
</linearGradient>
<linearGradient id="paint8_linear_60_4" x1="174" y1="220" x2="222.65" y2="275.308" gradientUnits="userSpaceOnUse">
<stop stop-color="white"/>
<stop offset="1" stop-color="#7FB5CC"/>
</linearGradient>
</defs>
</svg>
