<svg width="319" height="270" viewBox="0 0 319 270" fill="none" xmlns="http://www.w3.org/2000/svg">
<path d="M116.852 121.221C129.056 121.221 140.759 116.374 149.388 107.745C158.017 99.1158 162.865 87.4125 162.865 75.2093C162.865 63.0061 158.017 51.3027 149.388 42.6738C140.759 34.0448 129.056 29.1971 116.852 29.1971C104.649 29.1971 92.9459 34.0448 84.317 42.6738C75.688 51.3027 70.8403 63.0061 70.8403 75.2093C70.8403 87.4125 75.688 99.1158 84.317 107.745C92.9459 116.374 104.649 121.221 116.852 121.221Z" fill="url(#paint0_radial_32_116)"/>
<path d="M116.852 121.221C129.056 121.221 140.759 116.374 149.388 107.745C158.017 99.1158 162.865 87.4125 162.865 75.2093C162.865 63.0061 158.017 51.3027 149.388 42.6738C140.759 34.0448 129.056 29.1971 116.852 29.1971C104.649 29.1971 92.9459 34.0448 84.317 42.6738C75.688 51.3027 70.8403 63.0061 70.8403 75.2093C70.8403 87.4125 75.688 99.1158 84.317 107.745C92.9459 116.374 104.649 121.221 116.852 121.221Z" fill="url(#paint1_radial_32_116)"/>
<g filter="url(#filter0_i_32_116)">
<path d="M288.032 29.1515C247.52 -10.3346 182.705 -9.6513 143.219 30.8599C133.043 41.2671 125.2 53.7222 120.212 67.3963C120.051 67.8259 119.795 68.2135 119.462 68.5304C119.13 68.8472 118.731 69.085 118.294 69.2262C117.858 69.3674 117.395 69.4083 116.94 69.3459C116.485 69.2834 116.051 69.1192 115.668 68.8655C112.115 66.4987 108.348 64.4702 104.416 62.8065C93.1881 57.6553 80.8457 55.4094 68.5232 56.2751C56.2007 57.1409 44.2936 61.0906 33.8966 67.7611C23.4996 74.4316 14.9464 83.6088 9.02332 94.449C3.10023 105.289 -0.0026325 117.445 1.67581e-06 129.797C0.00334363 146.507 5.67699 162.721 16.0929 175.787C23.0068 184.877 31.9301 192.244 42.1648 197.312C52.3995 202.38 63.6679 205.011 75.0886 205H219.902C235.157 205.013 250.194 201.373 263.755 194.384C277.316 187.396 289.007 177.262 297.849 164.83C328.884 124.205 325.582 65.779 288.032 29.1401" fill="#D5D4DA"/>
<path d="M288.032 29.1515C247.52 -10.3346 182.705 -9.6513 143.219 30.8599C133.043 41.2671 125.2 53.7222 120.212 67.3963C120.051 67.8259 119.795 68.2135 119.462 68.5304C119.13 68.8472 118.731 69.085 118.294 69.2262C117.858 69.3674 117.395 69.4083 116.94 69.3459C116.485 69.2834 116.051 69.1192 115.668 68.8655C112.115 66.4987 108.348 64.4702 104.416 62.8065C93.1881 57.6553 80.8457 55.4094 68.5232 56.2751C56.2007 57.1409 44.2936 61.0906 33.8966 67.7611C23.4996 74.4316 14.9464 83.6088 9.02332 94.449C3.10023 105.289 -0.0026325 117.445 1.67581e-06 129.797C0.00334363 146.507 5.67699 162.721 16.0929 175.787C23.0068 184.877 31.9301 192.244 42.1648 197.312C52.3995 202.38 63.6679 205.011 75.0886 205H219.902C235.157 205.013 250.194 201.373 263.755 194.384C277.316 187.396 289.007 177.262 297.849 164.83C328.884 124.205 325.582 65.779 288.032 29.1401" fill="url(#paint2_linear_32_116)"/>
</g>
<path d="M288.032 29.1515C247.52 -10.3346 182.705 -9.6513 143.219 30.8599C133.043 41.2671 125.2 53.7222 120.212 67.3963C120.051 67.8259 119.795 68.2135 119.462 68.5304C119.13 68.8472 118.731 69.085 118.294 69.2262C117.858 69.3674 117.395 69.4083 116.94 69.3459C116.485 69.2834 116.051 69.1192 115.668 68.8655C112.115 66.4987 108.348 64.4702 104.416 62.8065C93.1881 57.6553 80.8457 55.4094 68.5232 56.2751C56.2007 57.1409 44.2936 61.0906 33.8966 67.7611C23.4996 74.4316 14.9464 83.6088 9.02332 94.449C3.10023 105.289 -0.0026325 117.445 1.67581e-06 129.797C0.00334363 146.507 5.67699 162.721 16.0929 175.787C23.0068 184.877 31.9301 192.244 42.1648 197.312C52.3995 202.38 63.6679 205.011 75.0886 205H219.902C235.157 205.013 250.194 201.373 263.755 194.384C277.316 187.396 289.007 177.262 297.849 164.83C328.884 124.205 325.582 65.779 288.032 29.1401" fill="url(#paint3_radial_32_116)"/>
<path d="M288.032 29.1515C247.52 -10.3346 182.705 -9.6513 143.219 30.8599C133.043 41.2671 125.2 53.7222 120.212 67.3963C120.051 67.8259 119.795 68.2135 119.462 68.5304C119.13 68.8472 118.731 69.085 118.294 69.2262C117.858 69.3674 117.395 69.4083 116.94 69.3459C116.485 69.2834 116.051 69.1192 115.668 68.8655C112.115 66.4987 108.348 64.4702 104.416 62.8065C93.1881 57.6553 80.8457 55.4094 68.5232 56.2751C56.2007 57.1409 44.2936 61.0906 33.8966 67.7611C23.4996 74.4316 14.9464 83.6088 9.02332 94.449C3.10023 105.289 -0.0026325 117.445 1.67581e-06 129.797C0.00334363 146.507 5.67699 162.721 16.0929 175.787C23.0068 184.877 31.9301 192.244 42.1648 197.312C52.3995 202.38 63.6679 205.011 75.0886 205H219.902C235.157 205.013 250.194 201.373 263.755 194.384C277.316 187.396 289.007 177.262 297.849 164.83C328.884 124.205 325.582 65.779 288.032 29.1401" fill="url(#paint4_radial_32_116)"/>
<path d="M288.032 29.1515C247.52 -10.3346 182.705 -9.6513 143.219 30.8599C133.043 41.2671 125.2 53.7222 120.212 67.3963C120.051 67.8259 119.795 68.2135 119.462 68.5304C119.13 68.8472 118.731 69.085 118.294 69.2262C117.858 69.3674 117.395 69.4083 116.94 69.3459C116.485 69.2834 116.051 69.1192 115.668 68.8655C112.115 66.4987 108.348 64.4702 104.416 62.8065C93.1881 57.6553 80.8457 55.4094 68.5232 56.2751C56.2007 57.1409 44.2936 61.0906 33.8966 67.7611C23.4996 74.4316 14.9464 83.6088 9.02332 94.449C3.10023 105.289 -0.0026325 117.445 1.67581e-06 129.797C0.00334363 146.507 5.67699 162.721 16.0929 175.787C23.0068 184.877 31.9301 192.244 42.1648 197.312C52.3995 202.38 63.6679 205.011 75.0886 205H219.902C235.157 205.013 250.194 201.373 263.755 194.384C277.316 187.396 289.007 177.262 297.849 164.83C328.884 124.205 325.582 65.779 288.032 29.1401" fill="url(#paint5_radial_32_116)"/>
<path d="M288.032 29.1515C247.52 -10.3346 182.705 -9.6513 143.219 30.8599C133.043 41.2671 125.2 53.7222 120.212 67.3963C120.051 67.8259 119.795 68.2135 119.462 68.5304C119.13 68.8472 118.731 69.085 118.294 69.2262C117.858 69.3674 117.395 69.4083 116.94 69.3459C116.485 69.2834 116.051 69.1192 115.668 68.8655C112.115 66.4987 108.348 64.4702 104.416 62.8065C93.1881 57.6553 80.8457 55.4094 68.5232 56.2751C56.2007 57.1409 44.2936 61.0906 33.8966 67.7611C23.4996 74.4316 14.9464 83.6088 9.02332 94.449C3.10023 105.289 -0.0026325 117.445 1.67581e-06 129.797C0.00334363 146.507 5.67699 162.721 16.0929 175.787C23.0068 184.877 31.9301 192.244 42.1648 197.312C52.3995 202.38 63.6679 205.011 75.0886 205H219.902C235.157 205.013 250.194 201.373 263.755 194.384C277.316 187.396 289.007 177.262 297.849 164.83C328.884 124.205 325.582 65.779 288.032 29.1401" fill="url(#paint6_radial_32_116)"/>
<path d="M127.5 215C128.966 215 130.145 216.149 130.145 217.578V222.529L132.68 220.059C133.716 219.049 135.391 219.049 136.416 220.059C137.441 221.068 137.452 222.701 136.416 223.699L130.134 229.821V238.037L137.43 233.935L139.733 225.579C140.108 224.204 141.562 223.388 142.973 223.753C144.384 224.118 145.221 225.536 144.846 226.911L143.921 230.272L148.009 227.974C149.277 227.265 150.897 227.684 151.624 228.919C152.351 230.154 151.922 231.733 150.654 232.442L146.566 234.74L150.037 235.642C151.448 236.008 152.285 237.425 151.911 238.8C151.536 240.175 150.081 240.991 148.671 240.626L140.097 238.381L132.79 242.495L140.086 246.597L148.66 244.353C150.07 243.988 151.525 244.804 151.9 246.178C152.274 247.553 151.437 248.971 150.026 249.336L146.566 250.249L150.654 252.547C151.922 253.256 152.351 254.835 151.624 256.07C150.897 257.305 149.277 257.724 148.009 257.015L143.921 254.717L144.846 258.1C145.221 259.475 144.384 260.892 142.973 261.258C141.562 261.623 140.108 260.806 139.733 259.432L137.43 251.076L130.145 246.963V255.179L136.427 261.301C137.463 262.31 137.463 263.943 136.427 264.941C135.391 265.94 133.716 265.951 132.691 264.941L130.156 262.471V267.422C130.156 268.851 128.977 270 127.511 270C126.045 270 124.866 268.851 124.866 267.422V262.471L122.331 264.941C121.295 265.951 119.62 265.951 118.595 264.941C117.57 263.932 117.559 262.299 118.595 261.301L124.877 255.179V246.963L117.581 251.065L115.278 259.421C114.903 260.796 113.449 261.612 112.038 261.247C110.627 260.882 109.79 259.464 110.165 258.089L111.079 254.717L106.991 257.015C105.723 257.724 104.103 257.305 103.376 256.07C102.649 254.835 103.078 253.256 104.346 252.547L108.434 250.249L104.963 249.347C103.552 248.982 102.715 247.564 103.089 246.189C103.464 244.814 104.919 243.998 106.329 244.363L114.903 246.608L122.21 242.495L114.914 238.392L106.329 240.626C104.919 240.991 103.464 240.175 103.089 238.8C102.715 237.425 103.552 236.008 104.963 235.642L108.434 234.74L104.346 232.442C103.078 231.733 102.649 230.154 103.376 228.919C104.103 227.684 105.723 227.265 106.991 227.974L111.079 230.272L110.154 226.889C109.779 225.515 110.616 224.097 112.027 223.732C113.438 223.367 114.892 224.183 115.267 225.558L117.57 233.913L124.855 238.027V229.811L118.573 223.699C117.537 222.69 117.537 221.057 118.573 220.059C119.609 219.06 121.284 219.049 122.309 220.059L124.844 222.529L124.855 217.578C124.855 216.149 126.034 215 127.5 215Z" fill="url(#paint7_linear_32_116)"/>
<path d="M198.5 215C199.966 215 201.145 216.149 201.145 217.578V222.529L203.68 220.059C204.716 219.049 206.391 219.049 207.416 220.059C208.441 221.068 208.452 222.701 207.416 223.699L201.134 229.821V238.037L208.43 233.935L210.733 225.579C211.108 224.204 212.562 223.388 213.973 223.753C215.384 224.118 216.221 225.536 215.846 226.911L214.921 230.272L219.009 227.974C220.277 227.265 221.897 227.684 222.624 228.919C223.351 230.154 222.922 231.733 221.654 232.442L217.566 234.74L221.037 235.642C222.448 236.008 223.285 237.425 222.911 238.8C222.536 240.175 221.081 240.991 219.671 240.626L211.097 238.381L203.79 242.495L211.086 246.597L219.66 244.353C221.07 243.988 222.525 244.804 222.9 246.178C223.274 247.553 222.437 248.971 221.026 249.336L217.566 250.249L221.654 252.547C222.922 253.256 223.351 254.835 222.624 256.07C221.897 257.305 220.277 257.724 219.009 257.015L214.921 254.717L215.846 258.1C216.221 259.475 215.384 260.892 213.973 261.258C212.562 261.623 211.108 260.806 210.733 259.432L208.43 251.076L201.145 246.963V255.179L207.427 261.301C208.463 262.31 208.463 263.943 207.427 264.941C206.391 265.94 204.716 265.951 203.691 264.941L201.156 262.471V267.422C201.156 268.851 199.977 270 198.511 270C197.045 270 195.866 268.851 195.866 267.422V262.471L193.331 264.941C192.295 265.951 190.62 265.951 189.595 264.941C188.57 263.932 188.559 262.299 189.595 261.301L195.877 255.179V246.963L188.581 251.065L186.278 259.421C185.903 260.796 184.449 261.612 183.038 261.247C181.627 260.882 180.79 259.464 181.165 258.089L182.079 254.717L177.991 257.015C176.723 257.724 175.103 257.305 174.376 256.07C173.649 254.835 174.078 253.256 175.346 252.547L179.434 250.249L175.963 249.347C174.552 248.982 173.715 247.564 174.089 246.189C174.464 244.814 175.919 243.998 177.329 244.363L185.903 246.608L193.21 242.495L185.914 238.392L177.329 240.626C175.919 240.991 174.464 240.175 174.089 238.8C173.715 237.425 174.552 236.008 175.963 235.642L179.434 234.74L175.346 232.442C174.078 231.733 173.649 230.154 174.376 228.919C175.103 227.684 176.723 227.265 177.991 227.974L182.079 230.272L181.154 226.889C180.779 225.515 181.616 224.097 183.027 223.732C184.438 223.367 185.892 224.183 186.267 225.558L188.57 233.913L195.855 238.027V229.811L189.573 223.699C188.537 222.69 188.537 221.057 189.573 220.059C190.609 219.06 192.284 219.049 193.309 220.059L195.844 222.529L195.855 217.578C195.855 216.149 197.034 215 198.5 215Z" fill="url(#paint8_linear_32_116)"/>
<defs>
<filter id="filter0_i_32_116" x="0" y="-1" width="318.895" height="206" filterUnits="userSpaceOnUse" color-interpolation-filters="sRGB">
<feFlood flood-opacity="0" result="BackgroundImageFix"/>
<feBlend mode="normal" in="SourceGraphic" in2="BackgroundImageFix" result="shape"/>
<feColorMatrix in="SourceAlpha" type="matrix" values="0 0 0 0 0 0 0 0 0 0 0 0 0 0 0 0 0 0 127 0" result="hardAlpha"/>
<feOffset dy="-1"/>
<feGaussianBlur stdDeviation="1"/>
<feComposite in2="hardAlpha" operator="arithmetic" k2="-1" k3="1"/>
<feColorMatrix type="matrix" values="0 0 0 0 0.815686 0 0 0 0 0.784314 0 0 0 0 0.956863 0 0 0 1 0"/>
<feBlend mode="normal" in2="shape" result="effect1_innerShadow_32_116"/>
</filter>
<radialGradient id="paint0_radial_32_116" cx="0" cy="0" r="1" gradientUnits="userSpaceOnUse" gradientTransform="translate(133.442 58.1425) rotate(-172.463) scale(63.1467)">
<stop offset="0.309" stop-color="#E8E8E9"/>
<stop offset="1" stop-color="#D2D2D2"/>
</radialGradient>
<radialGradient id="paint1_radial_32_116" cx="0" cy="0" r="1" gradientUnits="userSpaceOnUse" gradientTransform="translate(121.773 71.3142) rotate(-141.242) scale(34.2802 31.4086)">
<stop stop-color="#CDCDCE"/>
<stop offset="1" stop-color="#CDCDCE" stop-opacity="0"/>
</radialGradient>
<linearGradient id="paint2_linear_32_116" x1="192.021" y1="193.975" x2="192.021" y2="108.409" gradientUnits="userSpaceOnUse">
<stop stop-color="#DED7FA"/>
<stop offset="1" stop-color="#DED7FA" stop-opacity="0"/>
</linearGradient>
<radialGradient id="paint3_radial_32_116" cx="0" cy="0" r="1" gradientUnits="userSpaceOnUse" gradientTransform="translate(277.591 68.9239) rotate(136.5) scale(127.036 136.271)">
<stop offset="0.179" stop-color="#FCFBFE"/>
<stop offset="1" stop-color="#FCFBFE" stop-opacity="0"/>
</radialGradient>
<radialGradient id="paint4_radial_32_116" cx="0" cy="0" r="1" gradientUnits="userSpaceOnUse" gradientTransform="translate(75.8293 117.621) rotate(144.444) scale(77.9354 81.6644)">
<stop stop-color="#FCFBFE"/>
<stop offset="1" stop-color="#FCFBFE" stop-opacity="0"/>
</radialGradient>
<radialGradient id="paint5_radial_32_116" cx="0" cy="0" r="1" gradientUnits="userSpaceOnUse" gradientTransform="translate(264.376 96.4158) rotate(166.654) scale(271.719 213.987)">
<stop offset="0.815" stop-color="#CECCD7" stop-opacity="0"/>
<stop offset="1" stop-color="#CECCD7"/>
</radialGradient>
<radialGradient id="paint6_radial_32_116" cx="0" cy="0" r="1" gradientUnits="userSpaceOnUse" gradientTransform="translate(41.502 216.606) rotate(-46.79) scale(73.6134 101.588)">
<stop stop-color="#D0C9EE"/>
<stop offset="1" stop-color="#D0C9EE" stop-opacity="0"/>
</radialGradient>
<linearGradient id="paint7_linear_32_116" x1="103" y1="215" x2="151.65" y2="270.308" gradientUnits="userSpaceOnUse">
<stop stop-color="white"/>
<stop offset="1" stop-color="#7FB5CC"/>
</linearGradient>
<linearGradient id="paint8_linear_32_116" x1="174" y1="215" x2="222.65" y2="270.308" gradientUnits="userSpaceOnUse">
<stop stop-color="white"/>
<stop offset="1" stop-color="#7FB5CC"/>
</linearGradient>
</defs>
</svg>
