<svg width="319" height="280" viewBox="0 0 319 280" fill="none" xmlns="http://www.w3.org/2000/svg">
<path d="M116.852 121.221C129.056 121.221 140.759 116.374 149.388 107.745C158.017 99.1158 162.865 87.4125 162.865 75.2093C162.865 63.0061 158.017 51.3027 149.388 42.6738C140.759 34.0448 129.056 29.1971 116.852 29.1971C104.649 29.1971 92.9459 34.0448 84.317 42.6738C75.688 51.3027 70.8403 63.0061 70.8403 75.2093C70.8403 87.4125 75.688 99.1158 84.317 107.745C92.9459 116.374 104.649 121.221 116.852 121.221Z" fill="url(#paint0_radial_67_38)"/>
<path d="M116.852 121.221C129.056 121.221 140.759 116.374 149.388 107.745C158.017 99.1158 162.865 87.4125 162.865 75.2093C162.865 63.0061 158.017 51.3027 149.388 42.6738C140.759 34.0448 129.056 29.1971 116.852 29.1971C104.649 29.1971 92.9459 34.0448 84.317 42.6738C75.688 51.3027 70.8403 63.0061 70.8403 75.2093C70.8403 87.4125 75.688 99.1158 84.317 107.745C92.9459 116.374 104.649 121.221 116.852 121.221Z" fill="url(#paint1_radial_67_38)"/>
<g filter="url(#filter0_i_67_38)">
<path d="M288.032 29.1515C247.52 -10.3346 182.705 -9.6513 143.219 30.8599C133.043 41.2671 125.2 53.7222 120.212 67.3963C120.051 67.8259 119.795 68.2135 119.462 68.5304C119.13 68.8472 118.731 69.085 118.294 69.2262C117.858 69.3674 117.395 69.4083 116.94 69.3459C116.485 69.2834 116.051 69.1192 115.668 68.8655C112.115 66.4987 108.348 64.4702 104.416 62.8065C93.1881 57.6553 80.8457 55.4094 68.5232 56.2751C56.2007 57.1409 44.2936 61.0906 33.8966 67.7611C23.4996 74.4316 14.9464 83.6088 9.02332 94.449C3.10023 105.289 -0.0026325 117.445 1.67581e-06 129.797C0.00334363 146.507 5.67699 162.721 16.0929 175.787C23.0068 184.877 31.9301 192.244 42.1648 197.312C52.3995 202.38 63.6679 205.011 75.0886 205H219.902C235.157 205.013 250.194 201.373 263.755 194.384C277.316 187.396 289.007 177.262 297.849 164.83C328.884 124.205 325.582 65.779 288.032 29.1401" fill="#D5D4DA"/>
<path d="M288.032 29.1515C247.52 -10.3346 182.705 -9.6513 143.219 30.8599C133.043 41.2671 125.2 53.7222 120.212 67.3963C120.051 67.8259 119.795 68.2135 119.462 68.5304C119.13 68.8472 118.731 69.085 118.294 69.2262C117.858 69.3674 117.395 69.4083 116.94 69.3459C116.485 69.2834 116.051 69.1192 115.668 68.8655C112.115 66.4987 108.348 64.4702 104.416 62.8065C93.1881 57.6553 80.8457 55.4094 68.5232 56.2751C56.2007 57.1409 44.2936 61.0906 33.8966 67.7611C23.4996 74.4316 14.9464 83.6088 9.02332 94.449C3.10023 105.289 -0.0026325 117.445 1.67581e-06 129.797C0.00334363 146.507 5.67699 162.721 16.0929 175.787C23.0068 184.877 31.9301 192.244 42.1648 197.312C52.3995 202.38 63.6679 205.011 75.0886 205H219.902C235.157 205.013 250.194 201.373 263.755 194.384C277.316 187.396 289.007 177.262 297.849 164.83C328.884 124.205 325.582 65.779 288.032 29.1401" fill="url(#paint2_linear_67_38)"/>
</g>
<path d="M288.032 29.1515C247.52 -10.3346 182.705 -9.6513 143.219 30.8599C133.043 41.2671 125.2 53.7222 120.212 67.3963C120.051 67.8259 119.795 68.2135 119.462 68.5304C119.13 68.8472 118.731 69.085 118.294 69.2262C117.858 69.3674 117.395 69.4083 116.94 69.3459C116.485 69.2834 116.051 69.1192 115.668 68.8655C112.115 66.4987 108.348 64.4702 104.416 62.8065C93.1881 57.6553 80.8457 55.4094 68.5232 56.2751C56.2007 57.1409 44.2936 61.0906 33.8966 67.7611C23.4996 74.4316 14.9464 83.6088 9.02332 94.449C3.10023 105.289 -0.0026325 117.445 1.67581e-06 129.797C0.00334363 146.507 5.67699 162.721 16.0929 175.787C23.0068 184.877 31.9301 192.244 42.1648 197.312C52.3995 202.38 63.6679 205.011 75.0886 205H219.902C235.157 205.013 250.194 201.373 263.755 194.384C277.316 187.396 289.007 177.262 297.849 164.83C328.884 124.205 325.582 65.779 288.032 29.1401" fill="url(#paint3_radial_67_38)"/>
<path d="M288.032 29.1515C247.52 -10.3346 182.705 -9.6513 143.219 30.8599C133.043 41.2671 125.2 53.7222 120.212 67.3963C120.051 67.8259 119.795 68.2135 119.462 68.5304C119.13 68.8472 118.731 69.085 118.294 69.2262C117.858 69.3674 117.395 69.4083 116.94 69.3459C116.485 69.2834 116.051 69.1192 115.668 68.8655C112.115 66.4987 108.348 64.4702 104.416 62.8065C93.1881 57.6553 80.8457 55.4094 68.5232 56.2751C56.2007 57.1409 44.2936 61.0906 33.8966 67.7611C23.4996 74.4316 14.9464 83.6088 9.02332 94.449C3.10023 105.289 -0.0026325 117.445 1.67581e-06 129.797C0.00334363 146.507 5.67699 162.721 16.0929 175.787C23.0068 184.877 31.9301 192.244 42.1648 197.312C52.3995 202.38 63.6679 205.011 75.0886 205H219.902C235.157 205.013 250.194 201.373 263.755 194.384C277.316 187.396 289.007 177.262 297.849 164.83C328.884 124.205 325.582 65.779 288.032 29.1401" fill="url(#paint4_radial_67_38)"/>
<path d="M288.032 29.1515C247.52 -10.3346 182.705 -9.6513 143.219 30.8599C133.043 41.2671 125.2 53.7222 120.212 67.3963C120.051 67.8259 119.795 68.2135 119.462 68.5304C119.13 68.8472 118.731 69.085 118.294 69.2262C117.858 69.3674 117.395 69.4083 116.94 69.3459C116.485 69.2834 116.051 69.1192 115.668 68.8655C112.115 66.4987 108.348 64.4702 104.416 62.8065C93.1881 57.6553 80.8457 55.4094 68.5232 56.2751C56.2007 57.1409 44.2936 61.0906 33.8966 67.7611C23.4996 74.4316 14.9464 83.6088 9.02332 94.449C3.10023 105.289 -0.0026325 117.445 1.67581e-06 129.797C0.00334363 146.507 5.67699 162.721 16.0929 175.787C23.0068 184.877 31.9301 192.244 42.1648 197.312C52.3995 202.38 63.6679 205.011 75.0886 205H219.902C235.157 205.013 250.194 201.373 263.755 194.384C277.316 187.396 289.007 177.262 297.849 164.83C328.884 124.205 325.582 65.779 288.032 29.1401" fill="url(#paint5_radial_67_38)"/>
<path d="M288.032 29.1515C247.52 -10.3346 182.705 -9.6513 143.219 30.8599C133.043 41.2671 125.2 53.7222 120.212 67.3963C120.051 67.8259 119.795 68.2135 119.462 68.5304C119.13 68.8472 118.731 69.085 118.294 69.2262C117.858 69.3674 117.395 69.4083 116.94 69.3459C116.485 69.2834 116.051 69.1192 115.668 68.8655C112.115 66.4987 108.348 64.4702 104.416 62.8065C93.1881 57.6553 80.8457 55.4094 68.5232 56.2751C56.2007 57.1409 44.2936 61.0906 33.8966 67.7611C23.4996 74.4316 14.9464 83.6088 9.02332 94.449C3.10023 105.289 -0.0026325 117.445 1.67581e-06 129.797C0.00334363 146.507 5.67699 162.721 16.0929 175.787C23.0068 184.877 31.9301 192.244 42.1648 197.312C52.3995 202.38 63.6679 205.011 75.0886 205H219.902C235.157 205.013 250.194 201.373 263.755 194.384C277.316 187.396 289.007 177.262 297.849 164.83C328.884 124.205 325.582 65.779 288.032 29.1401" fill="url(#paint6_radial_67_38)"/>
<path d="M137.82 238.857L121.505 255.172C120.597 256.046 119.951 257.157 119.639 258.38C119.328 259.602 119.363 260.889 119.742 262.094C120.12 263.3 120.827 264.377 121.782 265.205C122.738 266.032 123.905 266.578 125.151 266.781C126.398 266.984 127.676 266.835 128.841 266.352C130.006 265.869 131.013 265.071 131.748 264.046C132.483 263.022 132.918 261.812 133.004 260.553C133.089 259.293 132.822 258.034 132.232 256.916M133.961 227.32L104.21 257.07C103.336 257.979 102.225 258.625 101.003 258.937C99.7799 259.248 98.4936 259.213 97.2881 258.834C96.0826 258.456 95.0055 257.749 94.1776 256.793C93.3497 255.838 92.8038 254.671 92.6011 253.425C92.3983 252.178 92.5468 250.9 93.0299 249.735C93.5129 248.57 94.3114 247.563 95.3358 246.828C96.3602 246.092 97.57 245.658 98.8294 245.572C100.089 245.487 101.348 245.754 102.466 246.343M124.343 221.541L113.786 232.098C112.912 233.006 111.801 233.653 110.579 233.964C109.356 234.276 108.07 234.24 106.864 233.862C105.659 233.483 104.582 232.776 103.754 231.821C102.926 230.865 102.38 229.699 102.177 228.452C101.974 227.205 102.123 225.928 102.606 224.762C103.089 223.597 103.887 222.59 104.912 221.855C105.936 221.12 107.146 220.685 108.405 220.6C109.665 220.514 110.924 220.781 112.042 221.371" stroke="url(#paint7_linear_67_38)" stroke-width="5" stroke-linecap="round" stroke-linejoin="round"/>
<path d="M214.82 238.857L198.505 255.172C197.597 256.046 196.951 257.157 196.639 258.38C196.328 259.602 196.363 260.889 196.742 262.094C197.12 263.3 197.827 264.377 198.782 265.205C199.738 266.032 200.905 266.578 202.151 266.781C203.398 266.984 204.676 266.835 205.841 266.352C207.006 265.869 208.013 265.071 208.748 264.046C209.483 263.022 209.918 261.812 210.004 260.553C210.089 259.293 209.822 258.034 209.232 256.916M210.961 227.32L181.21 257.07C180.336 257.979 179.225 258.625 178.003 258.937C176.78 259.248 175.494 259.213 174.288 258.834C173.083 258.456 172.006 257.749 171.178 256.793C170.35 255.838 169.804 254.671 169.601 253.425C169.398 252.178 169.547 250.9 170.03 249.735C170.513 248.57 171.311 247.563 172.336 246.828C173.36 246.092 174.57 245.658 175.829 245.572C177.089 245.487 178.348 245.754 179.466 246.343M201.343 221.541L190.786 232.098C189.912 233.006 188.801 233.653 187.579 233.964C186.356 234.276 185.07 234.24 183.864 233.862C182.659 233.483 181.582 232.776 180.754 231.821C179.926 230.865 179.38 229.699 179.177 228.452C178.974 227.205 179.123 225.928 179.606 224.762C180.089 223.597 180.887 222.59 181.912 221.855C182.936 221.12 184.146 220.685 185.405 220.6C186.665 220.514 187.924 220.781 189.042 221.371" stroke="url(#paint8_linear_67_38)" stroke-width="5" stroke-linecap="round" stroke-linejoin="round"/>
<defs>
<filter id="filter0_i_67_38" x="0" y="-1" width="318.895" height="206" filterUnits="userSpaceOnUse" color-interpolation-filters="sRGB">
<feFlood flood-opacity="0" result="BackgroundImageFix"/>
<feBlend mode="normal" in="SourceGraphic" in2="BackgroundImageFix" result="shape"/>
<feColorMatrix in="SourceAlpha" type="matrix" values="0 0 0 0 0 0 0 0 0 0 0 0 0 0 0 0 0 0 127 0" result="hardAlpha"/>
<feOffset dy="-1"/>
<feGaussianBlur stdDeviation="1"/>
<feComposite in2="hardAlpha" operator="arithmetic" k2="-1" k3="1"/>
<feColorMatrix type="matrix" values="0 0 0 0 0.815686 0 0 0 0 0.784314 0 0 0 0 0.956863 0 0 0 1 0"/>
<feBlend mode="normal" in2="shape" result="effect1_innerShadow_67_38"/>
</filter>
<radialGradient id="paint0_radial_67_38" cx="0" cy="0" r="1" gradientUnits="userSpaceOnUse" gradientTransform="translate(133.442 58.1425) rotate(-172.463) scale(63.1467)">
<stop offset="0.309" stop-color="#E8E8E9"/>
<stop offset="1" stop-color="#D2D2D2"/>
</radialGradient>
<radialGradient id="paint1_radial_67_38" cx="0" cy="0" r="1" gradientUnits="userSpaceOnUse" gradientTransform="translate(121.773 71.3142) rotate(-141.242) scale(34.2802 31.4086)">
<stop stop-color="#CDCDCE"/>
<stop offset="1" stop-color="#CDCDCE" stop-opacity="0"/>
</radialGradient>
<linearGradient id="paint2_linear_67_38" x1="192.021" y1="193.975" x2="192.021" y2="108.409" gradientUnits="userSpaceOnUse">
<stop stop-color="#DED7FA"/>
<stop offset="1" stop-color="#DED7FA" stop-opacity="0"/>
</linearGradient>
<radialGradient id="paint3_radial_67_38" cx="0" cy="0" r="1" gradientUnits="userSpaceOnUse" gradientTransform="translate(277.591 68.9239) rotate(136.5) scale(127.036 136.271)">
<stop offset="0.179" stop-color="#FCFBFE"/>
<stop offset="1" stop-color="#FCFBFE" stop-opacity="0"/>
</radialGradient>
<radialGradient id="paint4_radial_67_38" cx="0" cy="0" r="1" gradientUnits="userSpaceOnUse" gradientTransform="translate(75.8293 117.621) rotate(144.444) scale(77.9354 81.6644)">
<stop stop-color="#FCFBFE"/>
<stop offset="1" stop-color="#FCFBFE" stop-opacity="0"/>
</radialGradient>
<radialGradient id="paint5_radial_67_38" cx="0" cy="0" r="1" gradientUnits="userSpaceOnUse" gradientTransform="translate(264.376 96.4158) rotate(166.654) scale(271.719 213.987)">
<stop offset="0.815" stop-color="#CECCD7" stop-opacity="0"/>
<stop offset="1" stop-color="#CECCD7"/>
</radialGradient>
<radialGradient id="paint6_radial_67_38" cx="0" cy="0" r="1" gradientUnits="userSpaceOnUse" gradientTransform="translate(41.502 216.606) rotate(-46.79) scale(73.6134 101.588)">
<stop stop-color="#D0C9EE"/>
<stop offset="1" stop-color="#D0C9EE" stop-opacity="0"/>
</radialGradient>
<linearGradient id="paint7_linear_67_38" x1="82" y1="210" x2="151" y2="279" gradientUnits="userSpaceOnUse">
<stop stop-color="white"/>
<stop offset="1" stop-color="#7FB5CC"/>
</linearGradient>
<linearGradient id="paint8_linear_67_38" x1="159" y1="210" x2="228" y2="279" gradientUnits="userSpaceOnUse">
<stop stop-color="white"/>
<stop offset="1" stop-color="#7FB5CC"/>
</linearGradient>
</defs>
</svg>
